<?xml version="1.0" encoding="UTF-8"?>
<svg id="Capa_2" data-name="Capa 2" xmlns="http://www.w3.org/2000/svg" viewBox="0 0 73.58 16.88">
  <defs>
    <style>
      .cls-1 {
        fill: #131313;
        fill-rule: evenodd;
      }
    </style>
  </defs>
  <g id="Capa_1-2" data-name="Capa 1">
    <path class="cls-1" d="M72.54,10.64c-.73,0-.9.2-.9.44,0,.17.12.28.33.28.34,0,.57-.3.57-.63v-.09ZM72.64,12.06c0-.16,0-.33.03-.5-.16.34-.56.57-1.01.57-.63,0-.96-.37-.96-.9,0-.83.81-1.23,1.86-1.23v-.12c0-.27-.15-.4-.59-.4-.29,0-.69.09-.96.24l-.08-.83c.34-.1.78-.19,1.19-.19,1.13,0,1.45.42,1.45,1.18v1.42c0,.24,0,.52.03.78h-.95ZM69.07,12.06v-2.09c0-.27-.07-.43-.3-.43-.36,0-.66.44-.66.92v1.59h-1.01v-3.29h.94c0,.12,0,.36-.04.52.21-.34.58-.59,1.1-.59.74,0,.98.47.98,1.04v2.32h-1.01ZM64.86,9.56c-.32,0-.63.25-.63.82s.19.88.61.88c.36,0,.62-.3.62-.85s-.18-.85-.6-.85M64.77,12.13c-.96,0-1.58-.47-1.58-1.64,0-1.07.74-1.79,1.74-1.79s1.58.56,1.58,1.65-.74,1.79-1.74,1.79M61.12,9.42c-.33,0-.52.19-.52.47s.18.48.54.48c.3,0,.51-.19.51-.48s-.2-.48-.52-.48M61.43,12.16h-.52s-.09,0-.13,0c-.14.1-.22.24-.22.38,0,.25.21.41.58.41.47,0,.71-.2.71-.45,0-.19-.12-.34-.42-.34M61,13.7c-.89,0-1.43-.32-1.43-.97,0-.31.22-.63.47-.76-.19-.1-.32-.28-.32-.51,0-.25.17-.51.4-.59-.32-.16-.49-.5-.49-.9,0-.69.52-1.28,1.52-1.28.23,0,.43.03.61.08h1.11v.79h-.36c.04.07.09.17.09.31,0,.73-.53,1.18-1.43,1.18-.09,0-.19,0-.26-.01-.09.04-.12.11-.12.17,0,.13.09.17.47.17h.45c.71,0,1.13.32,1.13.98,0,.72-.7,1.35-1.85,1.35M57.94,10.64c-.73,0-.9.2-.9.44,0,.17.12.28.33.28.34,0,.57-.3.57-.63v-.09ZM58.04,12.06c0-.16,0-.33.02-.5-.16.34-.55.57-1.01.57-.63,0-.96-.37-.96-.9,0-.83.81-1.23,1.86-1.23v-.12c0-.27-.15-.4-.59-.4-.29,0-.69.09-.96.24l-.08-.83c.34-.1.78-.19,1.2-.19,1.13,0,1.45.42,1.45,1.18v1.42c0,.24,0,.52.03.78h-.95ZM55.86,9.69c-.55-.12-.84.19-.84,1.01v1.36h-1.01v-3.29h.94c0,.14-.02.38-.05.58.19-.39.5-.69,1-.66l-.05,1ZM53.49,9.69c-.55-.12-.84.19-.84,1.01v1.36h-1.01v-3.29h.94c0,.14-.01.38-.05.58.19-.39.5-.69,1-.66l-.05,1ZM49.83,10.64c-.73,0-.9.2-.9.44,0,.17.12.28.33.28.34,0,.57-.3.57-.63v-.09ZM49.92,12.06c0-.16,0-.33.03-.5-.17.34-.56.57-1.01.57-.63,0-.96-.37-.96-.9,0-.83.81-1.23,1.86-1.23v-.12c0-.27-.15-.4-.59-.4-.29,0-.69.09-.96.24l-.08-.83c.34-.1.78-.19,1.19-.19,1.14,0,1.45.42,1.45,1.18v1.42c0,.24,0,.52.03.78h-.95ZM46.95,8.47v3.58h-1.03v-3.58h-1.08v-.88h3.18v.88h-1.07ZM42,9.56c-.32,0-.63.25-.63.82s.19.88.61.88c.36,0,.62-.3.62-.85s-.18-.85-.6-.85M41.7,8.39l-.32-.58,1.29-.72.39.69-1.36.61ZM41.91,12.13c-.95,0-1.58-.47-1.58-1.64,0-1.07.73-1.79,1.74-1.79s1.58.56,1.58,1.65-.74,1.79-1.74,1.79M38.73,8.77h1.01v3.29h-1.01v-3.29ZM39.23,8.43c-.34,0-.62-.26-.62-.6s.28-.6.62-.6.62.26.62.6-.28.6-.62.6M37.27,12.12c-1,0-1.51-.55-1.51-1.61,0-.99.53-1.82,1.74-1.82.21,0,.43.03.64.08l-.11.87c-.17-.05-.34-.09-.52-.09-.46,0-.7.33-.7.87,0,.5.23.82.68.82.19,0,.4-.04.56-.12l.08.85c-.23.08-.54.14-.86.14M34.13,10.64c-.73,0-.9.2-.9.44,0,.17.12.28.33.28.34,0,.57-.3.57-.63v-.09ZM34.23,12.06c0-.16,0-.33.03-.5-.17.34-.56.57-1.01.57-.63,0-.96-.37-.96-.9,0-.83.81-1.23,1.86-1.23v-.12c0-.27-.15-.4-.59-.4-.29,0-.69.09-.96.24l-.08-.83c.34-.1.78-.19,1.2-.19,1.13,0,1.45.42,1.45,1.18v1.42c0,.24,0,.52.02.78h-.95ZM31.12,12.13c-.76,0-1.01-.25-1.01-1.06v-1.53h-.5v-.77h.5v-.97l1.01-.27v1.24h.72v.77h-.71v1.3c0,.34.09.45.34.45.12,0,.26-.03.37-.05v.8c-.22.05-.48.09-.72.09M28.23,12.06c0-.12,0-.36.04-.51-.21.34-.58.59-1.1.59-.74,0-.98-.47-.98-1.04v-2.32h1.02v2.09c0,.26.07.42.3.42.36,0,.65-.44.65-.92v-1.59h1.02v3.29h-.94ZM24.07,9.53c-.34,0-.58.4-.58.94v.81c.1.03.21.04.35.04.39,0,.68-.25.68-.98,0-.55-.15-.81-.45-.81M23.83,12.11c-.13,0-.23,0-.34-.03v1.54h-1.01v-4.85h.93c0,.14,0,.3-.03.47.2-.34.53-.54,1.01-.54.78,0,1.2.58,1.2,1.53,0,1.12-.57,1.88-1.76,1.88M20.68,8.77h1.01v3.29h-1.01v-3.29ZM21.18,8.43c-.34,0-.62-.26-.62-.6s.28-.6.62-.6.62.26.62.6-.28.6-.62.6M17.76,8.43c-.17,0-.31,0-.42.01v2.73c.09.01.23.03.39.03.71,0,1.24-.44,1.24-1.39,0-.84-.27-1.38-1.2-1.38M17.63,12.09c-.47,0-.92-.02-1.32-.04v-4.44c.35-.02.92-.04,1.52-.04,1.35,0,2.24.58,2.24,2.17s-.98,2.36-2.44,2.36M7.44,13.43h-.53v.71h-.8v-.71h-.53v-.53h1.86v.53ZM1.56,10.37l4.95-4.96,4.96,4.96-4.96,4.96L1.56,10.37ZM6.51,3.86L0,10.37l6.51,6.51,6.51-6.51L6.51,3.86ZM7.39,9.49c.3.3.79.3,1.09,0,.3-.3.3-.79,0-1.09-.3-.3-.79-.3-1.09,0-.3.3-.3.79,0,1.09M5.63,11.26c-.3-.3-.79-.3-1.09,0-.3.3-.3.79,0,1.09.3.3.79.3,1.09,0,.3-.3.3-.79,0-1.09M9.36,11.15c.43,0,.77-.34.77-.77s-.34-.77-.77-.77-.77.35-.77.77.35.77.77.77M3.67,9.61c-.43,0-.77.35-.77.77s.34.77.77.77.77-.34.77-.77-.35-.77-.77-.77M7.39,11.26c-.3.3-.3.79,0,1.09.3.3.79.3,1.09,0,.3-.3.3-.79,0-1.09-.3-.3-.79-.3-1.09,0M5.63,9.5c.3-.3.3-.79,0-1.09-.3-.3-.79-.3-1.09,0-.3.3-.3.79,0,1.09.3.3.79.3,1.09,0M5.73,7.54c0,.43.35.77.77.77s.77-.35.77-.77-.35-.77-.77-.77-.77.35-.77.77M6.5,11.15c.43,0,.77-.34.77-.77s-.35-.77-.77-.77-.77.35-.77.77.35.77.77.77M2.48,1.54c.43,0,.77-.35.77-.77s-.35-.77-.77-.77-.77.35-.77.77.34.77.77.77M4.49,1.54c.43,0,.77-.35.77-.77s-.35-.77-.77-.77-.77.35-.77.77.35.77.77.77M10.52,1.54c.43,0,.77-.35.77-.77s-.34-.77-.77-.77-.77.35-.77.77.35.77.77.77M8.51,1.54c.43,0,.77-.35.77-.77s-.34-.77-.77-.77-.77.35-.77.77.34.77.77.77M6.5,1.54c.43,0,.77-.35.77-.77s-.34-.77-.77-.77-.77.35-.77.77.35.77.77.77M3.26,2.01h6.49v1.1H3.26v-1.1Z"/>
  </g>
</svg>