<?xml version="1.0" encoding="UTF-8"?>
<svg id="Capa_2" data-name="Capa 2" xmlns="http://www.w3.org/2000/svg" viewBox="0 0 78.06 17.35">
  <defs>
    <style>
      .cls-1 {
        fill: #131313;
      }
    </style>
  </defs>
  <g id="Capa_1-2" data-name="Capa 1">
    <g>
      <path class="cls-1" d="M21.28,8.98c.18,0,.35,0,.52,0,.19,0,.38,0,.57,0l-.53-1.84-.57,1.84ZM22.36,6.86c.18.6.39,1.28.55,1.8.17.52.44,1.36.6,1.89l-.02.04c-.29,0-.4,0-.64.02l-.04-.04c-.14-.51-.18-.66-.32-1.15-.22,0-.43,0-.65,0-.24,0-.49,0-.71,0-.16.51-.19.64-.32,1.13l-.04.04c-.24,0-.29,0-.56.02l-.02-.04c.01-.06.04-.11.06-.17.21-.59.41-1.18.6-1.77.33-.97.45-1.32.61-1.84l.04-.04c.38,0,.43,0,.78-.02l.04.04.03.1Z"/>
      <path class="cls-1" d="M23.94,10.54v-.17c0-.05,0-.15,0-.25l.04-.03c.08.02.16.04.3.04.08,0,.33,0,.44-.26.04-.1.06-.16.06-1.01,0-.7-.01-1.39-.04-2.09l.03-.04c.23,0,.32,0,.61-.02l.03.04c-.03,1.16-.03,1.21-.02,1.71v.49c0,.08,0,.28,0,.49,0,.45-.03,1.17-1.01,1.17-.2,0-.3-.02-.4-.04l-.03-.04Z"/>
      <path class="cls-1" d="M29.15,6.77c0,.5-.01.63-.01,1.06,0,.23,0,.41,0,.82v.49c0,.33,0,.8-.31,1.14-.26.28-.68.4-1.13.4-.7,0-1.05-.28-1.19-.44-.3-.34-.3-.67-.3-1.31v-.56c0-.79,0-.88-.01-1.59l.04-.04c.3,0,.34,0,.61-.02l.03.04c-.02.57-.02,1.55-.02,2.08s.01.88.2,1.1c.09.11.3.27.68.27.14,0,.57-.01.77-.41.12-.23.12-.54.12-.96,0-.63,0-1.43-.04-2.06l.03-.04c.25,0,.28,0,.5-.02l.03.04Z"/>
      <path class="cls-1" d="M33.02,10.56l-.03.04c-.32,0-.35,0-.67.02l-.04-.04c-.32-.57-.64-1.15-.97-1.72l-.86-1.54.05,1.87c0,.23.02.45.02.68.02.45.02.46.03.69l-.03.04c-.24,0-.26,0-.52.02l-.03-.04c.02-.52.03-1.04.03-1.56,0-.74,0-1.49-.03-2.23l.03-.04c.34,0,.39,0,.7-.02l.05.04c.37.66.75,1.36,1.11,1.99l.68,1.2-.05-1.81c-.02-.85-.03-.98-.05-1.36l.03-.04c.24,0,.3,0,.52-.02l.03.04c-.01.66-.02,1.35-.02,2.02,0,.51,0,1.03.02,1.54v.23Z"/>
      <path class="cls-1" d="M36.37,7.21c-.46,0-.54,0-1,0-.01.54-.01.63-.01,1.12,0,1.37.02,1.91.04,2.24l-.03.04c-.31,0-.33,0-.63.02l-.03-.04c.03-.76.03-1.53.03-2.29,0-.56-.01-.84-.02-1.08-.48,0-.53,0-1.01.02l-.03-.04c.01-.19.01-.21.02-.4l.03-.04c.39,0,1.02,0,1.41,0,.42,0,.84,0,1.26-.01l.03.04c-.02.19-.02.25-.02.41l-.03.04Z"/>
      <path class="cls-1" d="M37.43,8.98c.17,0,.35,0,.52,0,.18,0,.38,0,.57,0l-.52-1.84-.57,1.84ZM38.51,6.86c.18.6.39,1.28.55,1.8.17.52.44,1.36.61,1.89l-.02.04c-.29,0-.4,0-.63.02l-.04-.04c-.14-.51-.18-.66-.32-1.15-.22,0-.43,0-.65,0-.24,0-.49,0-.71,0-.16.51-.19.64-.32,1.13l-.04.04c-.23,0-.29,0-.56.02l-.02-.04c.02-.06.04-.11.06-.17.21-.59.41-1.18.61-1.77.33-.97.45-1.32.61-1.84l.04-.04c.38,0,.43,0,.78-.02l.04.04.03.1Z"/>
      <path class="cls-1" d="M44.11,6.77c.03,1.26.07,2.52.14,3.79l-.03.04c-.27,0-.3,0-.59.02l-.03-.04c0-.62,0-.81-.02-1.41v-.58c-.01-.39-.02-1.22-.02-1.43-.09.31-.17.6-.4,1.37l-.25.79c-.2.6-.27.82-.39,1.24l-.03.04c-.3,0-.32,0-.64.02l-.03-.04c-.03-.09-.05-.19-.08-.27-.04-.17-.28-.98-.34-1.16l-.22-.76c-.22-.78-.24-.87-.31-1.21,0,.54-.01.67-.03,1.21l-.03.97c-.02.64-.02.79-.03,1.21l-.03.04c-.26,0-.3,0-.52.02l-.03-.04c.01-.11.02-.22.03-.33.05-.65.07-1.3.11-1.95.05-.97.06-1.03.06-1.51l.03-.04c.4,0,.5,0,.84-.02l.04.04c.1.44.19.75.3,1.12l.6,2.2.69-2.28c.22-.71.23-.74.31-1.03l.03-.04c.4,0,.45,0,.83-.02l.03.04Z"/>
      <path class="cls-1" d="M47.43,10.15c-.02.19-.02.23-.03.41l-.04.04c-1.06,0-1.23,0-2.27.02l-.03-.04c.02-.43.03-.72.03-1.72,0-.92,0-1.44-.04-2.07l.03-.04c1.07,0,1.28,0,2.29-.02l.03.04c-.01.16-.03.23-.04.42l-.03.04c-.7-.02-.94-.02-1.63-.03-.02.5-.02.66-.02,1.16.67,0,.88,0,1.54-.01l.03.04c-.02.19-.02.25-.03.42l-.03.04c-.63-.02-.77-.02-1.51-.02,0,.63,0,.79,0,1.3.82,0,.99,0,1.7-.03l.03.04Z"/>
      <path class="cls-1" d="M51.22,10.56l-.03.04c-.32,0-.34,0-.67.02l-.04-.04c-.32-.57-.64-1.15-.97-1.72l-.86-1.54.05,1.87c0,.23.02.45.02.68.02.45.02.46.03.69l-.03.04c-.24,0-.26,0-.52.02l-.03-.04c.02-.52.03-1.04.03-1.56,0-.74,0-1.49-.03-2.23l.02-.04c.34,0,.39,0,.71-.02l.05.04c.37.66.75,1.36,1.11,1.99l.68,1.2-.04-1.81c-.03-.85-.03-.98-.05-1.36l.03-.04c.24,0,.3,0,.52-.02l.03.04c-.01.66-.02,1.35-.02,2.02,0,.51,0,1.03.01,1.54v.23Z"/>
      <path class="cls-1" d="M54.6,7.21c-.46,0-.54,0-1,0-.01.54-.01.63-.01,1.12,0,1.37.02,1.91.04,2.24l-.03.04c-.31,0-.33,0-.63.02l-.02-.04c.02-.76.03-1.53.03-2.29,0-.56-.01-.84-.02-1.08-.47,0-.53,0-1.01.02l-.04-.04c.01-.19.01-.21.02-.4l.03-.04c.4,0,1.02,0,1.41,0,.42,0,.84,0,1.26-.01l.03.04c-.02.19-.02.25-.02.41l-.03.04Z"/>
      <path class="cls-1" d="M59.35,9.34c.09-.24.13-.51.13-.81,0-.18,0-.75-.4-1.09-.32-.27-.76-.27-.98-.27-.19,0-.34,0-.53,0-.01.35-.02.54-.02,1.36,0,1,0,1.12.02,1.61.73.01,1.44.02,1.77-.81M56.98,10.61l-.03-.04c.01-.44.02-.85.02-1.41,0-1.52-.02-1.97-.05-2.38l.03-.04.8-.02c.64-.01,1.2-.01,1.65.27.72.46.72,1.34.72,1.57,0,.31-.04.6-.15.89-.34.88-1.06,1.07-1.61,1.12-.21.02-.29.02-1.02.02h-.36Z"/>
      <path class="cls-1" d="M63.17,10.15c-.02.19-.02.23-.03.41l-.04.04c-1.06,0-1.23,0-2.27.02l-.03-.04c.02-.43.03-.72.03-1.72,0-.92,0-1.44-.04-2.07l.03-.04c1.07,0,1.29,0,2.29-.02l.03.04c-.02.16-.03.23-.04.42l-.03.04c-.7-.02-.94-.02-1.63-.03-.01.5-.01.66-.01,1.16.67,0,.88,0,1.54-.01l.03.04c-.02.19-.02.25-.03.42l-.03.04c-.63-.02-.77-.02-1.51-.02-.01.63,0,.79,0,1.3.82,0,.99,0,1.7-.03l.03.04Z"/>
      <path class="cls-1" d="M67.27,8.3c.14-.11.21-.28.21-.46,0-.12-.03-.25-.1-.38-.17-.27-.47-.28-.88-.28-.07,0-.17,0-.36,0,0,.63,0,.72,0,1.33.42,0,.87.02,1.13-.21M66.16,10.59c-.31,0-.32,0-.6.02l-.03-.04c.02-.53.02-1.06.02-1.59,0-1.22-.02-1.65-.05-2.2l.03-.04h.14c.1,0,.36,0,.55,0h.34c.3,0,.59,0,.85.09.42.14.69.44.69.97,0,.44-.24.88-.93,1.07.09.13.52.75.62.89.17.24.25.35.58.79l-.02.06c-.11,0-.22,0-.33,0-.11,0-.23.01-.34.02l-.04-.03s-.04-.08-.06-.11c-.16-.28-.34-.54-.52-.81-.33-.5-.36-.55-.49-.72-.17,0-.2.01-.39,0,0,.3,0,1.14.04,1.6l-.03.04Z"/>
      <path class="cls-1" d="M71.27,10.15c-.02.19-.02.23-.03.41l-.04.04c-1.06,0-1.23,0-2.27.02l-.03-.04c.01-.43.03-.72.03-1.72,0-.92,0-1.44-.04-2.07l.03-.04c1.07,0,1.29,0,2.29-.02l.03.04c-.01.16-.03.23-.04.42l-.03.04c-.7-.02-.94-.02-1.63-.03-.02.5-.02.66-.02,1.16.67,0,.88,0,1.54-.01l.03.04c-.02.19-.02.25-.03.42l-.03.04c-.63-.02-.77-.02-1.51-.02,0,.63,0,.79,0,1.3.82,0,.99,0,1.7-.03l.04.04Z"/>
      <path class="cls-1" d="M74.87,6.77c-.01.5-.02.63-.02,1.06,0,.23,0,.41,0,.82v.49c0,.33,0,.8-.31,1.14-.26.28-.68.4-1.12.4-.7,0-1.05-.28-1.2-.44-.29-.34-.29-.67-.29-1.31v-.56c0-.79,0-.88-.02-1.59l.04-.04c.3,0,.34,0,.61-.02l.03.04c-.02.57-.02,1.55-.02,2.08s.01.88.2,1.1c.09.11.31.27.68.27.14,0,.57-.01.78-.41.12-.23.12-.54.12-.96,0-.63,0-1.43-.04-2.06l.03-.04c.25,0,.28,0,.5-.02l.03.04Z"/>
      <path class="cls-1" d="M77.14,8.41c.4.17.93.4.93,1.1,0,.61-.45,1.16-1.4,1.16-.58,0-.95-.17-1.08-.24l-.02-.04c.02-.19.03-.29.04-.5l.05-.02c.14.09.46.32.96.32.56,0,.79-.29.79-.62,0-.38-.31-.53-.67-.67l-.27-.12c-.39-.18-.9-.41-.9-1.08,0-.2.05-.41.17-.57.25-.36.71-.48,1.15-.48s.69.08.98.18l.03.04c-.03.21-.03.28-.05.48l-.04.02c-.23-.12-.49-.25-.9-.25-.45,0-.74.21-.74.53,0,.25.16.36.28.43.07.04.09.05.42.2l.27.12Z"/>
      <path class="cls-1" d="M8.67,9.43c-.41,0-.75-.34-.75-.75s.34-.75.75-.75.75.34.75.75-.34.75-.75.75M10.48,8.02c-.29,0-.57.04-.84.11h-.02s0-.01,0-.01c-.15-.25-.4-.44-.69-.51h-.02s0-.03,0-.03c-.02-.31-.08-.63-.21-.97l-.02-.04v.04c-.13.33-.2.65-.22.97v.02s-.02,0-.02,0c-.29.06-.54.25-.7.5v.02s-.03,0-.03,0c-.25-.07-.52-.1-.82-.1-.05,0-.11,0-.17,0h-.04s.04.03.04.03c.27.22.56.38.86.49h.02s0,.03,0,.03c0,.03,0,.07,0,.1,0,.26.1.52.27.71v.02s0,.02,0,.02c-.17.26-.3.56-.4.92v.04s.02-.02.02-.02c.29-.19.54-.42.74-.67v-.02s.03,0,.03,0c.14.06.29.09.43.09s.29-.03.42-.08h.02s.01,0,.01,0c.19.24.44.45.74.66l.04.02v-.04c-.11-.33-.24-.63-.42-.9v-.02s0-.01,0-.01c.18-.2.27-.46.27-.73,0-.03,0-.06,0-.09v-.02s.02,0,.02,0c.29-.11.57-.28.86-.5l.03-.03h-.04c-.05,0-.1,0-.15,0"/>
      <path class="cls-1" d="M13.28,10.53c-.17.04-.29.06-.37.08.02-.2-.01-.4-.1-.58.18-.1.33-.24.43-.41.06.06.14.15.26.28.18.2.34.42.34.42l.04.05-.06.02s-.26.08-.53.15M12.45,10.04c.26.35.18.86-.18,1.11-.03.03-.07.05-.11.07-.04.01-.04.02-.11.04-.29.09-.68.31-1.06.59-.39.28-.71.58-.89.83-.04.05-.05.06-.08.09-.03.03-.07.06-.1.09-.14.1-.3.15-.47.15-.26,0-.5-.12-.65-.33-.06-.08-.1-.17-.13-.26-.02.09-.07.18-.12.26-.15.21-.39.33-.65.33-.17,0-.33-.05-.47-.15-.04-.03-.07-.06-.1-.09-.02-.03-.03-.04-.08-.09-.18-.25-.51-.55-.89-.83-.39-.28-.77-.5-1.06-.59-.07-.02-.07-.03-.11-.04-.04-.02-.08-.05-.12-.07-.17-.13-.29-.31-.32-.52-.03-.21.02-.42.14-.59.06-.08.13-.15.21-.2-.01,0-.03,0-.04,0-.08,0-.17-.01-.25-.04-.2-.07-.37-.21-.46-.4-.1-.19-.12-.41-.05-.61.01-.04.03-.08.05-.12.02-.03.02-.04.06-.1.18-.25.37-.65.51-1.1.15-.45.23-.89.23-1.19,0-.07,0-.08,0-.12,0-.04.02-.09.03-.13.11-.33.42-.55.76-.55.08,0,.16.01.24.04.1.03.18.08.26.14-.03-.09-.05-.19-.05-.29,0-.44.36-.8.8-.8.04,0,.09,0,.13.01.04,0,.05,0,.11.03.29.09.73.15,1.21.15s.92-.05,1.21-.15c.07-.02.08-.02.11-.03.04,0,.09-.01.13-.01.44,0,.8.36.8.8,0,.1-.02.2-.05.29.08-.06.16-.11.26-.14.08-.03.16-.04.25-.04.35,0,.65.22.76.55.01.04.02.09.03.13,0,.04,0,.05.01.12,0,.31.08.74.23,1.19.15.45.33.86.51,1.1.04.06.05.07.06.1.02.04.04.08.05.13.14.42-.09.87-.51,1.01-.08.02-.16.04-.25.04h-.04c.08.05.15.12.21.2M9.01,13.63c-.14.23-.3.46-.3.46l-.04.05-.04-.05s-.16-.23-.3-.46c-.09-.15-.15-.26-.19-.33.2-.04.38-.14.52-.28.15.14.32.23.52.28-.04.07-.1.19-.19.33M4.44,10.6c-.08-.01-.2-.04-.37-.07-.26-.06-.52-.14-.53-.14l-.05-.02.03-.05s.17-.22.34-.43c.11-.13.2-.22.26-.28.1.17.25.31.42.41-.09.18-.12.38-.1.58M5.52,4.28s.26.09.51.19c.16.07.27.12.35.16-.13.15-.22.33-.26.53-.05,0-.1-.01-.15-.01-.15,0-.3.03-.44.09-.01-.08-.03-.2-.04-.37-.02-.27-.03-.54-.03-.54v-.06s.06.02.06.02ZM11.32,4.47c.25-.1.51-.19.51-.19l.06-.02v.06s0,.28-.03.54c-.01.17-.03.3-.04.37-.13-.06-.28-.09-.44-.09-.05,0-.1,0-.15.01-.04-.2-.13-.38-.26-.53.07-.04.19-.09.35-.16M8.68,0L0,8.68l8.68,8.68,8.68-8.68L8.68,0Z"/>
    </g>
  </g>
</svg>