<?xml version="1.0" encoding="UTF-8"?>
<svg id="Capa_2" data-name="Capa 2" xmlns="http://www.w3.org/2000/svg" viewBox="0 0 63.75 23.33">
  <defs>
    <style>
      .cls-1 {
        fill: #2c60ab;
      }
    </style>
  </defs>
  <g id="Capa_1-2" data-name="Capa 1">
    <g>
      <path class="cls-1" d="M18.09,3.42c-.57-.54-1.49-.58-2.22-.58-.26,0-.52.02-.77.02l-.52.02v4.23c1.93,0,2.9,0,3.63-.91.3-.39.47-.88.46-1.37-.02-.78-.36-1.23-.58-1.41"/>
      <path class="cls-1" d="M15.8,0c-3.67,0-6.69,3.14-6.69,6.97,0,2.48,1.43,4.27,3.1,6.33.24.3.5.62.75.93,2.54,3.26,2.58,8.74,2.58,8.84,0,.13.09.25.22.26.13,0,.25-.09.26-.22,0-.01,0-.03,0-.04,0-.1.04-5.58,2.58-8.84.26-.32.5-.63.75-.93,1.67-2.08,3.1-3.87,3.1-6.33.04-3.83-2.96-6.97-6.65-6.97M18.52,7.05c-.91.73-2.3.75-3.63.78h-.32c.02,1.92.02,2.38.08,3.79l-.06.08-.83.02-.06-.1c.02-.85.02-1.35.02-2.13,0-.57-.04-3.39-.04-4.03-.02-1.79-.02-1.87-.1-3.22l.1-.06,1.79-.04.48-.02c1.07.02,2,.02,2.8.75.4.36.81.99.81,1.97.02.85-.37,1.67-1.03,2.2"/>
      <path class="cls-1" d="M7.52,11.66l-.91.02-.08-.1c-.32-1.17-.4-1.49-.8-2.76l-.1-.32h-3.49l-.28.02-.16.48c-.38,1.21-.45,1.49-.74,2.6l-.1.08H.08l-.08-.12c.48-1.29.62-1.69,1.05-3.06L3.14,2.23l.08-.08,1.15-.02.1.06.73,2.22,1,3c.67,2.08.87,2.68,1.41,4.15l-.08.1ZM2.08,7.78c.52.02,1.03.02,1.55.02.58,0,1.11-.02,1.73-.02l-1.65-5.16-1.63,5.16Z"/>
      <path class="cls-1" d="M30.95,11.66l-.91.02-.08-.1c-.32-1.17-.4-1.49-.79-2.76l-.1-.32h-3.47l-.28.02-.16.48c-.38,1.21-.46,1.49-.73,2.6l-.1.08h-.79l-.06-.12c.48-1.29.61-1.69,1.05-3.06l2.09-6.27.08-.08,1.15-.02.1.06.73,2.22.99,3c.68,2.08.87,2.68,1.41,4.15l-.12.1ZM25.51,7.78c.52.02,1.03.02,1.55.02.58,0,1.11-.02,1.73-.02l-1.65-5.16-1.63,5.16Z"/>
      <path class="cls-1" d="M34.43,2.1c1.13-.02,1.76,0,2.34.2,1.53.54,1.57,2.09,1.57,2.3,0,.65-.25,1.28-.71,1.75-.63.65-1.37.77-1.96.87l.99,1.29c.32.4.62.79.91,1.19.2.28,1.21,1.57,1.45,1.84l-.06.12h-.44c-.18.02-.34.02-.51.04l-.14-.08c-.66-.91-.78-1.07-2-2.7-.97-1.29-1.05-1.39-1.23-1.61l-1.23.02c.02,1.89.02,2.39.1,4.27l-.08.08-.81.02-.08-.08c.02-.93.02-1.35.02-2.12,0-2.42-.02-4.86-.12-7.27l.08-.08,1.92-.06ZM33.38,6.63c1.67-.02,2.28-.04,2.9-.28.44-.18,1.17-.6,1.17-1.75,0-1.78-1.71-1.78-2.46-1.78-.51,0-.99.02-1.58.04v3.77h-.02Z"/>
      <path class="cls-1" d="M47.19,11.18c-.16.1-.32.2-.48.28-.51.26-1.33.44-2.18.44-3.02,0-4.57-2.26-4.57-4.93,0-2.5,1.55-5,4.67-5,1.37,0,2.01.32,2.54.6l.06.1c-.06.23-.1.47-.1.71l-.1.06c-.4-.28-1.07-.73-2.4-.73-2.68,0-3.73,2.3-3.73,4.27,0,2.34,1.51,4.17,3.79,4.17.51,0,1.02-.1,1.49-.3.38-.16.74-.38,1.05-.65l.1.06c-.05.26-.07.53-.06.8l-.08.14Z"/>
      <path class="cls-1" d="M55.69,11.66l-.91.02-.08-.1c-.32-1.17-.4-1.49-.79-2.76l-.1-.32h-3.47l-.28.02-.16.48c-.38,1.21-.46,1.49-.74,2.6l-.1.08h-.79l-.06-.12c.48-1.29.62-1.69,1.05-3.06l2.08-6.27.08-.08,1.15-.02.1.06.73,2.22.99,3c.68,2.08.87,2.68,1.41,4.15l-.12.1ZM50.27,7.78c.52.02,1.03.02,1.55.02.57,0,1.11-.02,1.72-.02l-1.65-5.16-1.63,5.16Z"/>
      <path class="cls-1" d="M59.17,2.1c1.13-.02,1.77,0,2.34.2,1.53.54,1.57,2.09,1.57,2.3,0,.65-.25,1.28-.71,1.75-.64.65-1.37.77-1.97.87l.99,1.29c.32.4.62.79.91,1.19.2.28,1.21,1.57,1.45,1.84l-.06.12h-.44c-.18.02-.34.02-.52.04l-.14-.08c-.65-.91-.77-1.07-2.01-2.7-.97-1.29-1.05-1.39-1.23-1.61l-1.23.02c.02,1.89.02,2.39.1,4.27l-.08.08-.81.02-.08-.08c.02-.93.02-1.35.02-2.12,0-2.42-.02-4.86-.12-7.27l.08-.08,1.92-.06ZM58.11,6.63c1.67-.02,2.28-.04,2.9-.28.44-.18,1.17-.6,1.17-1.75,0-1.78-1.7-1.78-2.46-1.78-.52,0-.99.02-1.59.04v3.77h-.02Z"/>
    </g>
  </g>
</svg>