<?xml version="1.0" encoding="UTF-8"?>
<svg id="Capa_2" data-name="Capa 2" xmlns="http://www.w3.org/2000/svg" viewBox="0 0 41.85 26.94">
  <defs>
    <style>
      .cls-1 {
        fill: #fff;
      }
    </style>
  </defs>
  <g id="Capa_1-2" data-name="Capa 1">
    <g>
      <rect class="cls-1" x="21.35" width="11.47" height="1.72"/>
      <path class="cls-1" d="M32.39,14.61c1.69,0,2.88,1.2,2.88,2.88s-1.2,2.85-2.88,2.85-2.88-1.2-2.88-2.85,1.2-2.88,2.88-2.88"/>
      <path class="cls-1" d="M32.39,26.94c-5.22,0-9.46-4.24-9.46-9.46s4.24-9.46,9.46-9.46,9.46,4.24,9.46,9.46-4.24,9.46-9.46,9.46M32.39,9.74c-4.27,0-7.74,3.47-7.74,7.74s3.47,7.74,7.74,7.74,7.74-3.47,7.74-7.74-3.47-7.74-7.74-7.74"/>
      <path class="cls-1" d="M9.46,14.61c1.69,0,2.88,1.2,2.88,2.88s-1.2,2.85-2.88,2.85-2.88-1.2-2.88-2.85,1.2-2.88,2.88-2.88"/>
      <path class="cls-1" d="M9.46,26.94c-5.22,0-9.46-4.24-9.46-9.46s4.24-9.46,9.46-9.46,9.46,4.24,9.46,9.46-4.24,9.46-9.46,9.46M9.46,9.74c-4.27,0-7.74,3.47-7.74,7.74s3.47,7.74,7.74,7.74,7.74-3.47,7.74-7.74-3.47-7.74-7.74-7.74"/>
      <rect class="cls-1" x="11.9" y="6.62" width="5.19" height="1.72" transform="translate(1.29 17.06) rotate(-63.26)"/>
      <rect class="cls-1" x="13.5" y="9.22" width="16.56" height="1.72" transform="translate(2.98 25) rotate(-63.26)"/>
      <rect class="cls-1" x="27.64" y=".02" width="1.72" height="18.3" transform="translate(-1.22 12.77) rotate(-24.75)"/>
      <rect class="cls-1" x="12.89" y="4.51" width="5.73" height="1.72"/>
    </g>
  </g>
</svg>