<?xml version="1.0" encoding="UTF-8"?>
<svg id="Capa_2" data-name="Capa 2" xmlns="http://www.w3.org/2000/svg" viewBox="0 0 30.39 26.66">
  <defs>
    <style>
      .cls-1 {
        fill: #fff;
      }
    </style>
  </defs>
  <g id="Capa_1-2" data-name="Capa 1">
    <g>
      <path class="cls-1" d="M30.39,21.79H0v-11.75h5.73V0h18.92v10.03h5.73v11.75ZM1.72,20.07h26.95v-8.31h-5.73V1.72H7.45v10.03H1.72v8.31Z"/>
      <path class="cls-1" d="M22.89,23.81c0,1.66-1.2,2.85-2.88,2.85s-2.88-1.2-2.88-2.85,1.19-2.88,2.88-2.88,2.88,1.2,2.88,2.88M10.38,20.93c1.69,0,2.88,1.2,2.88,2.88s-1.2,2.85-2.88,2.85-2.88-1.2-2.88-2.85,1.2-2.88,2.88-2.88"/>
      <path class="cls-1" d="M21.21,11.75h-12.04V3.44h12.04v8.31ZM10.89,10.03h8.6v-4.87h-8.6v4.87Z"/>
    </g>
  </g>
</svg>