<?xml version="1.0" encoding="UTF-8"?>
<svg id="Capa_2" data-name="Capa 2" xmlns="http://www.w3.org/2000/svg" viewBox="0 0 24.9 39.68">
  <defs>
    <style>
      .cls-1 {
        fill: #2c60ab;
      }
    </style>
  </defs>
  <g id="Capa_1-2" data-name="Capa 1">
    <g>
      <path class="cls-1" d="M12.45,24.9C5.58,24.9,0,19.32,0,12.45S5.58,0,12.45,0s12.45,5.58,12.45,12.45-5.58,12.45-12.45,12.45M12.45,1.97C6.67,1.97,1.96,6.67,1.96,12.45s4.7,10.49,10.49,10.49,10.48-4.7,10.48-10.49S18.23,1.97,12.45,1.97"/>
      <rect class="cls-1" x="11.59" y="23.92" width="1.72" height="15.77"/>
      <path class="cls-1" d="M8.67,5.76h4.15c3.4,0,5.35,1.74,5.35,4.82s-1.95,4.82-5.35,4.82h-2.16v3.75h-1.99V5.76ZM12.8,13.54c2.24,0,3.31-.94,3.31-2.96s-1.07-2.98-3.31-2.98h-2.14v5.95h2.14Z"/>
    </g>
  </g>
</svg>