<?xml version="1.0" encoding="UTF-8"?>
<svg id="Capa_2" data-name="Capa 2" xmlns="http://www.w3.org/2000/svg" viewBox="0 0 27.52 32.39">
  <defs>
    <style>
      .cls-1 {
        fill: #2c60ab;
      }
    </style>
  </defs>
  <g id="Capa_1-2" data-name="Capa 1">
    <path class="cls-1" d="M27.52,30.39H0V0h27.52v30.39ZM1.72,28.67h24.08V1.72H1.72v26.95Z"/>
    <path class="cls-1" d="M24.22,17.49H3.29V5.73h20.93v11.75ZM5.02,15.77h17.49V7.45H5.02v8.31Z"/>
    <path class="cls-1" d="M21.45,29.54c0,1.66-1.2,2.85-2.88,2.85s-2.88-1.2-2.88-2.85,1.19-2.88,2.88-2.88,2.88,1.2,2.88,2.88M8.95,26.66c1.69,0,2.88,1.2,2.88,2.88s-1.2,2.85-2.88,2.85-2.88-1.2-2.88-2.85,1.2-2.88,2.88-2.88"/>
  </g>
</svg>