<?xml version="1.0" encoding="UTF-8"?>
<svg id="Capa_2" data-name="Capa 2" xmlns="http://www.w3.org/2000/svg" viewBox="0 0 135 40">
  <g id="artwork">
    <g>
      <rect width="135" height="40" rx="5" ry="5"/>
      <path d="M130,.8c2.32,0,4.2,1.88,4.2,4.2v30c0,2.32-1.88,4.2-4.2,4.2H5c-2.32,0-4.2-1.88-4.2-4.2V5C.8,2.68,2.68.8,5,.8h125M130,0H5C2.25,0,0,2.25,0,5v30c0,2.75,2.25,5,5,5h125c2.75,0,5-2.25,5-5V5C135,2.25,132.75,0,130,0h0Z" fill="#a6a6a6"/>
      <path d="M68.14,21.75c-2.35,0-4.27,1.79-4.27,4.25s1.92,4.25,4.27,4.25,4.27-1.8,4.27-4.25-1.92-4.25-4.27-4.25ZM68.14,28.58c-1.29,0-2.4-1.06-2.4-2.58s1.11-2.58,2.4-2.58,2.4,1.05,2.4,2.58-1.11,2.58-2.4,2.58ZM58.82,21.75c-2.35,0-4.27,1.79-4.27,4.25s1.92,4.25,4.27,4.25,4.27-1.8,4.27-4.25-1.92-4.25-4.27-4.25ZM58.82,28.58c-1.29,0-2.4-1.06-2.4-2.58s1.11-2.58,2.4-2.58,2.4,1.05,2.4,2.58-1.11,2.58-2.4,2.58ZM47.74,23.06v1.8h4.32c-.13,1.02-.47,1.76-.98,2.27-.63.63-1.61,1.32-3.33,1.32-2.66,0-4.74-2.14-4.74-4.8s2.08-4.8,4.74-4.8c1.43,0,2.48.56,3.25,1.29l1.27-1.27c-1.08-1.03-2.51-1.82-4.53-1.82-3.64,0-6.7,2.96-6.7,6.61s3.06,6.61,6.7,6.61c1.97,0,3.45-.64,4.61-1.85,1.19-1.19,1.56-2.87,1.56-4.22,0-.42-.03-.81-.1-1.13h-6.07ZM93.05,24.46c-.35-.95-1.43-2.71-3.64-2.71s-4.01,1.72-4.01,4.25c0,2.38,1.8,4.25,4.22,4.25,1.95,0,3.08-1.19,3.54-1.88l-1.45-.97c-.48.71-1.14,1.18-2.09,1.18s-1.63-.44-2.06-1.29l5.69-2.35-.19-.48ZM87.25,25.88c-.05-1.64,1.27-2.48,2.22-2.48.74,0,1.37.37,1.58.9l-3.8,1.58ZM82.63,30h1.87v-12.5h-1.87v12.5ZM79.57,22.7h-.06c-.42-.5-1.22-.95-2.24-.95-2.13,0-4.08,1.87-4.08,4.27s1.95,4.24,4.08,4.24c1.02,0,1.82-.45,2.24-.97h.06v.61c0,1.63-.87,2.5-2.27,2.5-1.14,0-1.85-.82-2.14-1.51l-1.63.68c.47,1.13,1.71,2.51,3.77,2.51,2.19,0,4.04-1.29,4.04-4.43v-7.64h-1.77v.69ZM77.42,28.58c-1.29,0-2.37-1.08-2.37-2.56s1.08-2.59,2.37-2.59,2.27,1.1,2.27,2.59-1,2.56-2.27,2.56ZM101.81,17.5h-4.47v12.5h1.87v-4.74h2.61c2.07,0,4.1-1.5,4.1-3.88s-2.03-3.88-4.1-3.88ZM101.85,23.52h-2.65v-4.29h2.65c1.4,0,2.19,1.16,2.19,2.14s-.79,2.14-2.19,2.14ZM113.39,21.73c-1.35,0-2.75.6-3.33,1.91l1.66.69c.35-.69,1.01-.92,1.7-.92.96,0,1.95.58,1.96,1.61v.13c-.34-.19-1.06-.48-1.95-.48-1.79,0-3.6.98-3.6,2.81,0,1.67,1.46,2.75,3.1,2.75,1.25,0,1.95-.56,2.38-1.22h.06v.97h1.8v-4.79c0-2.22-1.66-3.46-3.8-3.46ZM113.16,28.58c-.61,0-1.46-.31-1.46-1.06,0-.96,1.06-1.33,1.98-1.33.82,0,1.21.18,1.7.42-.14,1.16-1.14,1.98-2.22,1.98ZM123.74,22l-2.14,5.42h-.06l-2.22-5.42h-2.01l3.33,7.58-1.9,4.21h1.95l5.13-11.79h-2.07ZM106.94,30h1.87v-12.5h-1.87v12.5Z" fill="#fff"/>
      <g>
        <path d="M20.72,19.42l-10.65,11.3s0,0,0,0c.33,1.23,1.45,2.13,2.78,2.13.53,0,1.03-.14,1.46-.4l.03-.02,11.98-6.91-5.61-6.11Z" fill="#ea4335"/>
        <path d="M31.49,17.5h-.01s-5.17-3.01-5.17-3.01l-5.83,5.19,5.85,5.85,5.15-2.97c.9-.49,1.51-1.44,1.51-2.53s-.6-2.04-1.5-2.52Z" fill="#fbbc04"/>
        <path d="M10.07,9.28c-.06.24-.1.48-.1.74v19.97c0,.26.03.5.1.74l11.01-11.01-11.01-10.44Z" fill="#4285f4"/>
        <path d="M20.8,20l5.51-5.51-11.97-6.94c-.43-.26-.94-.41-1.49-.41-1.33,0-2.45.91-2.78,2.13,0,0,0,0,0,0l10.73,10.72Z" fill="#34a853"/>
      </g>
    </g>
    <g>
      <path d="M41.71,6.9h2.35c.25,0,.49.04.71.13.22.08.42.2.59.35.17.15.31.32.4.53s.15.42.15.66c0,.32-.08.59-.24.81-.16.22-.36.39-.6.5v.05c.31.11.57.29.76.54.19.25.29.55.29.9,0,.27-.05.51-.16.72-.1.21-.25.4-.43.55-.18.15-.39.27-.62.36s-.49.13-.75.13h-2.45v-6.23ZM44.02,9.51c.15,0,.28-.02.39-.07s.21-.11.29-.19c.08-.08.14-.17.18-.27.04-.1.06-.2.06-.31s-.02-.21-.06-.31c-.04-.1-.1-.19-.17-.27-.08-.08-.17-.14-.28-.19-.11-.05-.23-.07-.37-.07h-1.37v1.69h1.33ZM44.16,12.22c.16,0,.3-.03.42-.08.12-.05.22-.12.3-.21s.14-.19.19-.3c.04-.11.07-.22.07-.34s-.02-.23-.07-.33c-.04-.11-.11-.2-.2-.29-.09-.08-.19-.15-.32-.2s-.27-.08-.43-.08h-1.44v1.83h1.47Z" fill="#fff"/>
      <path d="M48.86,6.9h1.13l2.34,6.23h-1.09l-.57-1.6h-2.5l-.57,1.6h-1.09l2.34-6.23ZM50.35,10.64l-.65-1.84-.24-.73h-.05l-.24.73-.65,1.84h1.84Z" fill="#fff"/>
      <path d="M53.13,6.9h.98v6.23h-.98v-6.23Z" fill="#fff"/>
      <path d="M57,9.9l-1.92-2.99h1.21l1.36,2.21h.05l1.36-2.21h1.21l-1.92,2.99,2.06,3.24h-1.2l-1.5-2.39h-.05l-1.5,2.39h-1.2l2.06-3.24Z" fill="#fff"/>
      <path d="M63.3,6.9h1.13l2.34,6.23h-1.09l-.57-1.6h-2.5l-.57,1.6h-1.09l2.34-6.23ZM64.79,10.64l-.65-1.84-.24-.73h-.05l-.24.73-.65,1.84h1.84Z" fill="#fff"/>
      <path d="M71.23,6.9h1.13l2.34,6.23h-1.09l-.57-1.6h-2.5l-.57,1.6h-1.09l2.34-6.23ZM72.72,10.64l-.65-1.84-.24-.73h-.05l-.24.73-.65,1.84h1.84Z" fill="#fff"/>
    </g>
  </g>
</svg>