<?xml version="1.0" encoding="UTF-8"?>
<svg id="Capa_2" data-name="Capa 2" xmlns="http://www.w3.org/2000/svg" viewBox="0 0 135 40">
  <defs>
    <style>
      .cls-mot{
        fill: #4270d9;
      }
      .cls-1 {
        fill: #ea4335;
      }

      .cls-2 {
        fill: #fff;
      }

      .cls-3 {
        fill: #fff;
      }

      .cls-4 {
        fill: #fbbc04;
      }

      .cls-5 {
        fill: #4285f4;
      }

      .cls-6 {
        fill: #34a853;
      }
    </style>
  </defs>
  <g id="artwork">
    <g>
      <rect class="cls-mot" width="135" height="40" rx="5" ry="5"/>
      <path class="cls-3" d="M130,.8c2.32,0,4.2,1.88,4.2,4.2v30c0,2.32-1.88,4.2-4.2,4.2H5c-2.32,0-4.2-1.88-4.2-4.2V5C.8,2.68,2.68.8,5,.8h125M130,0H5C2.25,0,0,2.25,0,5v30c0,2.75,2.25,5,5,5h125c2.75,0,5-2.25,5-5V5C135,2.25,132.75,0,130,0h0Z"/>
      <path class="cls-2" d="M68.14,21.75c-2.35,0-4.27,1.79-4.27,4.25s1.92,4.25,4.27,4.25,4.27-1.8,4.27-4.25-1.92-4.25-4.27-4.25ZM68.14,28.58c-1.29,0-2.4-1.06-2.4-2.58s1.11-2.58,2.4-2.58,2.4,1.05,2.4,2.58-1.11,2.58-2.4,2.58ZM58.82,21.75c-2.35,0-4.27,1.79-4.27,4.25s1.92,4.25,4.27,4.25,4.27-1.8,4.27-4.25-1.92-4.25-4.27-4.25ZM58.82,28.58c-1.29,0-2.4-1.06-2.4-2.58s1.11-2.58,2.4-2.58,2.4,1.05,2.4,2.58-1.11,2.58-2.4,2.58ZM47.74,23.06v1.8h4.32c-.13,1.02-.47,1.76-.98,2.27-.63.63-1.61,1.32-3.33,1.32-2.66,0-4.74-2.14-4.74-4.8s2.08-4.8,4.74-4.8c1.43,0,2.48.56,3.25,1.29l1.27-1.27c-1.08-1.03-2.51-1.82-4.53-1.82-3.64,0-6.7,2.96-6.7,6.61s3.06,6.61,6.7,6.61c1.97,0,3.45-.64,4.61-1.85,1.19-1.19,1.56-2.87,1.56-4.22,0-.42-.03-.81-.1-1.13h-6.07ZM93.05,24.46c-.35-.95-1.43-2.71-3.64-2.71s-4.01,1.72-4.01,4.25c0,2.38,1.8,4.25,4.22,4.25,1.95,0,3.08-1.19,3.54-1.88l-1.45-.97c-.48.71-1.14,1.18-2.09,1.18s-1.63-.44-2.06-1.29l5.69-2.35-.19-.48ZM87.25,25.88c-.05-1.64,1.27-2.48,2.22-2.48.74,0,1.37.37,1.58.9l-3.8,1.58ZM82.63,30h1.87v-12.5h-1.87v12.5ZM79.57,22.7h-.06c-.42-.5-1.22-.95-2.24-.95-2.13,0-4.08,1.87-4.08,4.27s1.95,4.24,4.08,4.24c1.02,0,1.82-.45,2.24-.97h.06v.61c0,1.63-.87,2.5-2.27,2.5-1.14,0-1.85-.82-2.14-1.51l-1.63.68c.47,1.13,1.71,2.51,3.77,2.51,2.19,0,4.04-1.29,4.04-4.43v-7.64h-1.77v.69ZM77.42,28.58c-1.29,0-2.37-1.08-2.37-2.56s1.08-2.59,2.37-2.59,2.27,1.1,2.27,2.59-1,2.56-2.27,2.56ZM101.81,17.5h-4.47v12.5h1.87v-4.74h2.61c2.07,0,4.1-1.5,4.1-3.88s-2.03-3.88-4.1-3.88ZM101.85,23.52h-2.65v-4.29h2.65c1.4,0,2.19,1.16,2.19,2.14s-.79,2.14-2.19,2.14ZM113.39,21.73c-1.35,0-2.75.6-3.33,1.91l1.66.69c.35-.69,1.01-.92,1.7-.92.96,0,1.95.58,1.96,1.61v.13c-.34-.19-1.06-.48-1.95-.48-1.79,0-3.6.98-3.6,2.81,0,1.67,1.46,2.75,3.1,2.75,1.25,0,1.95-.56,2.38-1.22h.06v.97h1.8v-4.79c0-2.22-1.66-3.46-3.8-3.46ZM113.16,28.58c-.61,0-1.46-.31-1.46-1.06,0-.96,1.06-1.33,1.98-1.33.82,0,1.21.18,1.7.42-.14,1.16-1.14,1.98-2.22,1.98ZM123.74,22l-2.14,5.42h-.06l-2.22-5.42h-2.01l3.33,7.58-1.9,4.21h1.95l5.13-11.79h-2.07ZM106.94,30h1.87v-12.5h-1.87v12.5Z"/>
      <g>
        <path class="cls-1" d="M20.72,19.42l-10.65,11.3s0,0,0,0c.33,1.23,1.45,2.13,2.78,2.13.53,0,1.03-.14,1.46-.4l.03-.02,11.98-6.91-5.61-6.11Z"/>
        <path class="cls-4" d="M31.49,17.5h-.01s-5.17-3.01-5.17-3.01l-5.83,5.19,5.85,5.85,5.15-2.97c.9-.49,1.51-1.44,1.51-2.53s-.6-2.04-1.5-2.52Z"/>
        <path class="cls-5" d="M10.07,9.28c-.06.24-.1.48-.1.74v19.97c0,.26.03.5.1.74l11.01-11.01-11.01-10.44Z"/>
        <path class="cls-6" d="M20.8,20l5.51-5.51-11.97-6.94c-.43-.26-.94-.41-1.49-.41-1.33,0-2.45.91-2.78,2.13,0,0,0,0,0,0l10.73,10.72Z"/>
      </g>
    </g>
    <g>
      <path d="M41.71,6.9h2c.49,0,.94.08,1.33.23s.73.37,1,.64c.28.27.49.6.64.98s.22.8.22,1.26-.07.88-.22,1.26-.36.71-.64.98c-.28.27-.61.49-1,.64s-.83.23-1.33.23h-2v-6.23ZM43.69,12.19c.7,0,1.24-.19,1.63-.57s.57-.92.57-1.6-.19-1.21-.57-1.6-.93-.58-1.63-.58h-1v4.35h1Z" fill="#fff"/>
      <path d="M48.98,7.84v1.71h2.53v.92h-2.53v1.71h2.81v.94h-3.79v-6.23h3.79v.94h-2.81Z" fill="#fff"/>
      <path d="M54.74,13.27c-.25,0-.49-.04-.73-.11-.23-.07-.45-.18-.65-.33s-.38-.32-.53-.54c-.15-.21-.27-.46-.35-.75l.94-.38c.04.16.1.31.18.46.08.14.17.27.29.37.11.1.24.19.38.25.14.06.3.09.47.09.14,0,.28-.02.42-.06.13-.04.25-.09.35-.17.1-.08.18-.17.24-.28.06-.11.09-.24.09-.38,0-.13-.02-.24-.07-.35-.05-.1-.12-.2-.22-.29s-.23-.17-.39-.25c-.16-.08-.36-.16-.58-.24l-.39-.14c-.17-.06-.34-.13-.52-.23s-.34-.21-.48-.35c-.14-.14-.26-.3-.35-.48-.09-.19-.14-.4-.14-.65,0-.23.05-.45.14-.66.1-.21.23-.39.41-.54s.38-.28.62-.37c.24-.09.51-.13.8-.13s.57.04.8.13.42.19.58.32c.16.13.28.27.38.42.1.15.17.3.21.43l-.89.37c-.03-.09-.07-.18-.13-.27-.05-.09-.13-.17-.21-.24-.09-.07-.19-.13-.31-.17-.12-.05-.26-.07-.41-.07-.14,0-.27.02-.39.06-.12.04-.23.09-.32.16-.09.07-.16.15-.21.24-.05.09-.08.19-.08.3,0,.22.09.4.27.54s.45.27.8.39l.39.14c.24.08.47.18.67.29s.38.24.53.4c.15.15.27.33.35.53.08.2.13.44.13.71,0,.32-.07.6-.2.83-.13.23-.3.42-.5.57s-.43.26-.68.33c-.25.07-.49.1-.73.1Z" fill="#fff"/>
      <path d="M63.29,12.15c-.3.35-.65.62-1.07.82-.42.2-.89.3-1.41.3-.46,0-.89-.08-1.29-.25-.39-.17-.74-.39-1.03-.69s-.52-.64-.69-1.03c-.17-.39-.25-.82-.25-1.29s.08-.89.25-1.28c.17-.4.39-.74.69-1.04s.64-.52,1.03-.69c.39-.17.82-.25,1.29-.25s.91.09,1.3.27.72.43,1.01.75l-.7.68c-.21-.25-.44-.44-.7-.57-.26-.13-.56-.19-.91-.19-.31,0-.6.05-.88.16-.28.11-.51.26-.72.46s-.36.44-.48.73c-.12.29-.18.61-.18.96s.06.67.18.96c.12.29.28.53.48.73s.44.35.72.46.57.16.88.16c.37,0,.7-.08.99-.23.29-.15.55-.37.77-.64l.71.69Z" fill="#fff"/>
      <path d="M66.13,6.9h1.13l2.34,6.23h-1.09l-.57-1.6h-2.5l-.57,1.6h-1.09l2.34-6.23ZM67.62,10.64l-.65-1.84-.24-.73h-.05l-.24.73-.65,1.84h1.84Z" fill="#fff"/>
      <path d="M70.41,6.9h2.2c.28,0,.55.05.8.14.25.09.46.22.64.4.18.17.32.37.42.6s.15.49.15.77c0,.21-.04.42-.11.61s-.17.36-.3.52c-.13.15-.28.29-.45.4s-.36.19-.55.24v.04s1.7,2.46,1.7,2.46v.05h-1.15l-1.64-2.43h-.72v2.43h-.98v-6.23ZM72.58,9.78c.14,0,.28-.02.4-.07s.23-.12.33-.2.17-.19.22-.31c.06-.12.08-.25.08-.4,0-.12-.02-.23-.07-.35-.04-.12-.11-.22-.19-.31s-.19-.17-.31-.23c-.12-.06-.27-.09-.43-.09h-1.23v1.96h1.19Z" fill="#fff"/>
      <path d="M78.62,9.76h3.04c.01.08.02.16.03.24s.02.17.02.27c0,.37-.06.74-.17,1.1s-.31.69-.59.97c-.28.3-.62.52-1,.69-.38.16-.82.24-1.31.24-.45,0-.87-.08-1.27-.24-.4-.16-.74-.39-1.04-.68-.3-.29-.53-.63-.7-1.03-.17-.4-.26-.83-.26-1.3s.08-.9.26-1.3c.17-.4.41-.74.7-1.03.29-.29.64-.52,1.04-.68.4-.16.82-.24,1.27-.24.48,0,.92.08,1.32.25.4.17.74.4,1.01.7l-.69.69c-.2-.23-.44-.4-.72-.52s-.59-.18-.93-.18c-.3,0-.58.06-.85.17-.27.11-.51.27-.72.47-.21.2-.37.44-.5.73-.12.28-.18.6-.18.96s.06.67.18.96.29.53.5.73.45.36.72.47c.27.11.56.17.86.17.4,0,.72-.06.97-.18.25-.12.45-.26.62-.43.12-.12.23-.27.32-.46s.15-.4.18-.62h-2.1v-.89Z" fill="#fff"/>
      <path d="M84.35,6.9h1.13l2.34,6.23h-1.09l-.57-1.6h-2.5l-.57,1.6h-1.09l2.34-6.23ZM85.83,10.64l-.65-1.84-.24-.73h-.05l-.24.73-.65,1.84h1.84Z" fill="#fff"/>
      <path d="M88.62,6.9h2.2c.28,0,.55.05.8.14.25.09.46.22.64.4.18.17.32.37.42.6s.15.49.15.77c0,.21-.04.42-.11.61s-.17.36-.3.52c-.13.15-.28.29-.45.4s-.36.19-.55.24v.04s1.7,2.46,1.7,2.46v.05h-1.15l-1.64-2.43h-.72v2.43h-.98v-6.23ZM90.8,9.78c.14,0,.28-.02.4-.07s.23-.12.33-.2.17-.19.22-.31c.06-.12.08-.25.08-.4,0-.12-.02-.23-.07-.35-.04-.12-.11-.22-.19-.31s-.19-.17-.31-.23c-.12-.06-.27-.09-.43-.09h-1.23v1.96h1.19Z" fill="#fff"/>
      <path d="M96.73,7.84v1.71h2.53v.92h-2.53v1.71h2.81v.94h-3.79v-6.23h3.79v.94h-2.81Z" fill="#fff"/>
      <path d="M100.75,6.9h1.17l2.77,4.52h.05l-.05-1.2v-3.31h.97v6.23h-1.03l-2.91-4.74h-.05l.05,1.2v3.54h-.98v-6.23Z" fill="#fff"/>
    </g>
  </g>
</svg>