<?xml version="1.0" encoding="utf-8"?>
<!-- Generator: Adobe Illustrator 28.2.0, SVG Export Plug-In . SVG Version: 6.00 Build 0)  -->
<svg version="1.1" id="Artwork" xmlns="http://www.w3.org/2000/svg" xmlns:xlink="http://www.w3.org/1999/xlink" x="0px" y="0px"
	 width="127.332px" height="41px" viewBox="0 0 127.332 41" style="enable-background:new 0 0 127.332 41;" xml:space="preserve">
<style type="text/css">
	.st0{fill: #4270d9;}
	.st1{fill:#fff;}
</style>
<g>
	<g>
		<g>
			<path class="st1" d="M116.803,0H9.535C9.168,0,8.806,0,8.44,0.002C8.134,0.004,7.83,0.01,7.521,0.015C6.855,0.031,6.182,0.072,5.517,0.191
				C4.848,0.309,4.226,0.509,3.616,0.818C3.018,1.125,2.471,1.523,1.998,1.997C1.519,2.471,1.123,3.02,0.819,3.618
				C0.508,4.227,0.311,4.852,0.194,5.521C0.074,6.184,0.032,6.854,0.015,7.523C0.006,7.83,0.005,8.138,0,8.444
				C0,8.807,0,9.17,0,9.536v20.929c0,0.369,0,0.73,0,1.094c0.005,0.311,0.006,0.611,0.015,0.922c0.017,0.67,0.059,1.34,0.179,2.002
				c0.117,0.67,0.314,1.298,0.625,1.904c0.303,0.596,0.7,1.145,1.178,1.614c0.473,0.478,1.02,0.875,1.619,1.179
				c0.609,0.312,1.231,0.51,1.901,0.631c0.665,0.119,1.338,0.158,2.004,0.177c0.309,0.007,0.613,0.011,0.919,0.011
				C8.806,40,9.168,40,9.535,40h107.268c0.359,0,0.725,0,1.084-0.002c0.305,0,0.617-0.004,0.922-0.011
				c0.67-0.019,1.342-0.058,2-0.177c0.67-0.121,1.293-0.318,1.908-0.631c0.598-0.304,1.145-0.701,1.617-1.179
				c0.477-0.47,0.873-1.019,1.182-1.614c0.307-0.606,0.506-1.234,0.619-1.904c0.123-0.662,0.162-1.332,0.186-2.002
				c0.004-0.311,0.004-0.611,0.004-0.922c0.008-0.363,0.008-0.725,0.008-1.094V9.536c0-0.366,0-0.729-0.008-1.092
				c0-0.307,0-0.614-0.004-0.921c-0.023-0.67-0.062-1.34-0.186-2.002c-0.113-0.67-0.312-1.295-0.619-1.903
				c-0.309-0.599-0.705-1.147-1.182-1.621c-0.473-0.474-1.02-0.872-1.617-1.179c-0.615-0.31-1.238-0.51-1.908-0.627
				c-0.658-0.119-1.33-0.16-2-0.177c-0.305-0.005-0.617-0.011-0.922-0.013C117.528,0,117.162,0,116.803,0L116.803,0z"/>
			<path class="st0" d="M8.445,39.125c-0.305,0-0.602-0.004-0.904-0.011c-0.559-0.016-1.222-0.047-1.869-0.163
				c-0.61-0.11-1.153-0.29-1.657-0.548c-0.521-0.265-0.99-0.606-1.397-1.017c-0.414-0.406-0.754-0.873-1.021-1.396
				c-0.259-0.505-0.437-1.047-0.543-1.657c-0.122-0.673-0.153-1.355-0.166-1.875c-0.006-0.211-0.015-0.913-0.015-0.913V8.444
				c0,0,0.009-0.691,0.015-0.895c0.013-0.524,0.044-1.206,0.166-1.872C1.16,5.064,1.337,4.522,1.597,4.016
				c0.266-0.524,0.606-0.994,1.015-1.398c0.414-0.414,0.884-0.757,1.402-1.022c0.514-0.261,1.055-0.439,1.653-0.544
				C6.341,0.931,7.023,0.9,7.543,0.887l0.902-0.012h109.437l0.913,0.013c0.513,0.013,1.195,0.043,1.858,0.163
				c0.603,0.105,1.147,0.285,1.671,0.548c0.513,0.263,0.982,0.605,1.392,1.016c0.409,0.406,0.752,0.878,1.023,1.404
				c0.258,0.511,0.434,1.053,0.535,1.649c0.116,0.631,0.152,1.279,0.174,1.887c0.003,0.283,0.003,0.587,0.003,0.89
				c0.008,0.375,0.008,0.732,0.008,1.092v20.929c0,0.363,0,0.718-0.008,1.075c0,0.325,0,0.623-0.004,0.93
				c-0.021,0.589-0.057,1.236-0.171,1.854c-0.104,0.613-0.279,1.155-0.54,1.67c-0.27,0.52-0.612,0.989-1.016,1.386
				c-0.413,0.418-0.882,0.759-1.399,1.023c-0.519,0.264-1.048,0.438-1.668,0.55c-0.641,0.116-1.304,0.147-1.869,0.163
				c-0.293,0.007-0.6,0.011-0.897,0.011l-1.084,0.002L8.445,39.125z"/>
		</g>
	</g>
	<g id="XMLID_00000004543162338754863510000002658802571262305688_">
		<g id="XMLID_00000027597549648865700860000002561052603797361300_">
			<path class="st1" id="XMLID_00000100351217391537460830000008511102983589627302_" d="M24.769,20.301c-0.025-2.751,2.252-4.089,2.357-4.152
				c-1.29-1.881-3.289-2.138-3.991-2.158c-1.679-0.176-3.307,1.005-4.163,1.005c-0.872,0-2.19-0.987-3.609-0.958
				c-1.826,0.028-3.536,1.086-4.473,2.728c-1.934,3.348-0.491,8.269,1.361,10.976c0.927,1.325,2.01,2.806,3.428,2.753
				c1.387-0.058,1.905-0.884,3.579-0.884c1.659,0,2.145,0.884,3.591,0.851c1.488-0.024,2.426-1.331,3.321-2.669
				c1.071-1.52,1.501-3.016,1.518-3.093C27.653,24.688,24.797,23.599,24.769,20.301z"/>
			<path class="st1" id="XMLID_00000087394345254358410950000006539483307315342247_" d="M22.037,12.211c0.746-0.933,1.256-2.202,1.115-3.491
				c-1.08,0.048-2.43,0.746-3.208,1.66c-0.688,0.804-1.302,2.122-1.144,3.361C20.013,13.831,21.259,13.129,22.037,12.211z"/>
		</g>
	</g>
	<g class="st1" id="XMLID_00000116917938213916602620000003723874226590753193_">
		 <g>
          <path d="M42.30227,27.13965h-4.7334l-1.13672,3.35645H34.42727l4.4834-12.418h2.083l4.4834,12.418H43.438ZM38.0591,25.59082h3.752l-1.84961-5.44727h-.05176Z" style="fill: #fff"/>
          <path d="M55.15969,25.96973c0,2.81348-1.50586,4.62109-3.77832,4.62109a3.0693,3.0693,0,0,1-2.84863-1.584h-.043v4.48438h-1.8584V21.44238H48.4302v1.50586h.03418a3.21162,3.21162,0,0,1,2.88281-1.60059C53.645,21.34766,55.15969,23.16406,55.15969,25.96973Zm-1.91016,0c0-1.833-.94727-3.03809-2.39258-3.03809-1.41992,0-2.375,1.23047-2.375,3.03809,0,1.82422.95508,3.0459,2.375,3.0459C52.30227,29.01563,53.24953,27.81934,53.24953,25.96973Z" style="fill: #fff"/>
          <path d="M65.12453,25.96973c0,2.81348-1.50586,4.62109-3.77832,4.62109a3.0693,3.0693,0,0,1-2.84863-1.584h-.043v4.48438h-1.8584V21.44238H58.395v1.50586h.03418A3.21162,3.21162,0,0,1,61.312,21.34766C63.60988,21.34766,65.12453,23.16406,65.12453,25.96973Zm-1.91016,0c0-1.833-.94727-3.03809-2.39258-3.03809-1.41992,0-2.375,1.23047-2.375,3.03809,0,1.82422.95508,3.0459,2.375,3.0459C62.26711,29.01563,63.21438,27.81934,63.21438,25.96973Z" style="fill: #fff"/>
          <path d="M71.71047,27.03613c.1377,1.23145,1.334,2.04,2.96875,2.04,1.56641,0,2.69336-.80859,2.69336-1.91895,0-.96387-.67969-1.541-2.28906-1.93652l-1.60937-.3877c-2.28027-.55078-3.33887-1.61719-3.33887-3.34766,0-2.14258,1.86719-3.61426,4.51855-3.61426,2.624,0,4.42285,1.47168,4.4834,3.61426h-1.876c-.1123-1.23926-1.13672-1.9873-2.63379-1.9873s-2.52148.75684-2.52148,1.8584c0,.87793.6543,1.39453,2.25488,1.79l1.36816.33594c2.54785.60254,3.60645,1.626,3.60645,3.44238,0,2.32324-1.85059,3.77832-4.79395,3.77832-2.75391,0-4.61328-1.4209-4.7334-3.667Z" style="fill: #fff"/>
          <path d="M83.34621,19.2998v2.14258h1.72168v1.47168H83.34621v4.99121c0,.77539.34473,1.13672,1.10156,1.13672a5.80752,5.80752,0,0,0,.61133-.043v1.46289a5.10351,5.10351,0,0,1-1.03223.08594c-1.833,0-2.54785-.68848-2.54785-2.44434V22.91406H80.16262V21.44238H81.479V19.2998Z" style="fill: #fff"/>
          <path d="M86.065,25.96973c0-2.84863,1.67773-4.63867,4.29395-4.63867,2.625,0,4.29492,1.79,4.29492,4.63867,0,2.85645-1.66113,4.63867-4.29492,4.63867C87.72609,30.6084,86.065,28.82617,86.065,25.96973Zm6.69531,0c0-1.9541-.89551-3.10742-2.40137-3.10742s-2.40039,1.16211-2.40039,3.10742c0,1.96191.89453,3.10645,2.40039,3.10645S92.76027,27.93164,92.76027,25.96973Z" style="fill: #fff"/>
          <path d="M96.18606,21.44238h1.77246v1.541h.043a2.1594,2.1594,0,0,1,2.17773-1.63574,2.86616,2.86616,0,0,1,.63672.06934v1.73828a2.59794,2.59794,0,0,0-.835-.1123,1.87264,1.87264,0,0,0-1.93652,2.083v5.37012h-1.8584Z" style="fill: #fff"/>
          <path d="M109.3843,27.83691c-.25,1.64355-1.85059,2.77148-3.89844,2.77148-2.63379,0-4.26855-1.76465-4.26855-4.5957,0-2.83984,1.64355-4.68164,4.19043-4.68164,2.50488,0,4.08008,1.7207,4.08008,4.46582v.63672h-6.39453v.1123a2.358,2.358,0,0,0,2.43555,2.56445,2.04834,2.04834,0,0,0,2.09082-1.27344Zm-6.28223-2.70215h4.52637a2.1773,2.1773,0,0,0-2.2207-2.29785A2.292,2.292,0,0,0,103.10207,25.13477Z" style="fill: #fff"/>
        </g>
	</g>
    <g class="st1">
        <path d="M35.42775,11.71631c0-1.93506,1.0293-3.13037,2.6875-3.13037a2.3842,2.3842,0,0,1,2.48145,2.06787h-.92285A1.53493,1.53493,0,0,0,38.11525,9.4502c-1.07129,0-1.74121.87256-1.74121,2.26611,0,1.38965.66992,2.26172,1.74512,2.26172a1.49525,1.49525,0,0,0,1.55469-1.09961h.92285a2.32824,2.32824,0,0,1-2.47754,1.96387C36.461,14.84229,35.42775,13.64746,35.42775,11.71631Z"/>
        <path d="M41.61037,12.44434a2.13323,2.13323,0,1,1,4.24707,0,2.13358,2.13358,0,1,1-4.24707,0Zm3.333,0c0-.97607-.43848-1.54687-1.208-1.54687-.77246,0-1.207.5708-1.207,1.54688,0,.98389.43457,1.55029,1.207,1.55029C44.5049,13.99463,44.94338,13.42432,44.94338,12.44434Z"/>
        <path d="M47.04982,10.19482h.85547v.71533h.06641a1.348,1.348,0,0,1,1.34375-.80225,1.46456,1.46456,0,0,1,1.55859,1.6748v2.915h-.88867V12.00586c0-.72363-.31445-1.0835-.97168-1.0835a1.03294,1.03294,0,0,0-1.0752,1.14111v2.63428h-.88867Z"/>
        <path d="M53.89455,10.10791c1.0127,0,1.6748.47119,1.76172,1.26514h-.85254c-.082-.33057-.40527-.5415-.90918-.5415-.49609,0-.873.23535-.873.58691,0,.269.22754.43848.71582.55029l.748.17334c.85645.19873,1.25781.56689,1.25781,1.22852,0,.84766-.79,1.41406-1.86523,1.41406-1.07129,0-1.76953-.48389-1.84863-1.28174H52.919a.91365.91365,0,0,0,.97949.562c.55371,0,.94727-.248.94727-.60791,0-.26855-.21094-.44238-.66211-.5498l-.78516-.18213c-.85645-.20264-1.25293-.58691-1.25293-1.25684C52.14553,10.66992,52.877,10.10791,53.89455,10.10791Z"/>
        <path d="M56.86525,9.44189l1.03809-1.42236h1.042L57.78322,9.44189Zm.0918.75293h.88477v4.50293h-.88477Z"/>
        <path d="M59.22561,15.14844h.90918c.0752.32666.45117.5376,1.05078.5376.74023,0,1.17871-.35156,1.17871-.94678V13.875h-.06641a1.51433,1.51433,0,0,1-1.38965.75635c-1.14941,0-1.86035-.88867-1.86035-2.23682,0-1.373.71875-2.27441,1.86914-2.27441a1.56045,1.56045,0,0,1,1.41406.79395h.07031v-.71924h.85156v4.54c0,1.02979-.80664,1.68311-2.08008,1.68311C60.04787,16.418,59.32033,15.91357,59.22561,15.14844Zm3.15527-2.7583c0-.897-.46387-1.47168-1.2207-1.47168-.76465,0-1.19434.57471-1.19434,1.47168,0,.89746.42969,1.47217,1.19434,1.47217C61.9219,13.8623,62.38088,13.292,62.38088,12.39014Z"/>
        <path d="M68.46535,14.69775h-.85645v-.71533h-.07031a1.35022,1.35022,0,0,1-1.36035.80225,1.46254,1.46254,0,0,1-1.55127-1.6665V10.19482h.89014v2.69189c0,.72754.293,1.0752.94629,1.0752a1.02228,1.02228,0,0,0,1.1123-1.1333V10.19482h.88965Z"/>
        <path d="M73.689,13.48193a1.828,1.828,0,0,1-1.95117,1.30273,2.04531,2.04531,0,0,1-2.08008-2.32422,2.07685,2.07685,0,0,1,2.07617-2.35254c1.25293,0,2.00879.856,2.00879,2.27V12.688H70.563v.0498a1.1902,1.1902,0,0,0,1.19922,1.29,1.07934,1.07934,0,0,0,1.07129-.5459Zm-3.126-1.45117h2.27441a1.08647,1.08647,0,0,0-1.1084-1.1665A1.15162,1.15162,0,0,0,70.563,12.03076Z"/>
        <path d="M74.97707,8.437h.88867v6.26074h-.88867Z"/>
        <path d="M77.10109,12.44434a2.13323,2.13323,0,1,1,4.24707,0,2.13358,2.13358,0,1,1-4.24707,0Zm3.333,0c0-.97607-.43848-1.54687-1.208-1.54687-.77246,0-1.207.5708-1.207,1.54688,0,.98389.43457,1.55029,1.207,1.55029C79.99563,13.99463,80.4341,13.42432,80.4341,12.44434Z"/>
        <path d="M88.79152,13.48193a1.828,1.828,0,0,1-1.95117,1.30273,2.04531,2.04531,0,0,1-2.08008-2.32422,2.07685,2.07685,0,0,1,2.07617-2.35254c1.25293,0,2.00879.856,2.00879,2.27V12.688H85.66555v.0498a1.1902,1.1902,0,0,0,1.19922,1.29,1.07934,1.07934,0,0,0,1.07129-.5459Zm-3.126-1.45117H87.94a1.08647,1.08647,0,0,0-1.1084-1.1665A1.15162,1.15162,0,0,0,85.66555,12.03076Z"/>
        <path d="M90.03859,10.19482h.85547v.71533h.06641a1.348,1.348,0,0,1,1.34375-.80225,1.46456,1.46456,0,0,1,1.55859,1.6748v2.915h-.88867V12.00586c0-.72363-.31445-1.0835-.97168-1.0835a1.03294,1.03294,0,0,0-1.0752,1.14111v2.63428h-.88867Z"/>
        <path d="M101.48781,13.48193a1.828,1.828,0,0,1-1.95117,1.30273,2.04531,2.04531,0,0,1-2.08008-2.32422,2.07685,2.07685,0,0,1,2.07617-2.35254c1.25293,0,2.00879.856,2.00879,2.27V12.688H98.36184v.0498a1.1902,1.1902,0,0,0,1.19922,1.29,1.07934,1.07934,0,0,0,1.07129-.5459Zm-3.126-1.45117h2.27441a1.08647,1.08647,0,0,0-1.1084-1.1665A1.15162,1.15162,0,0,0,98.36184,12.03076Z"/>
        <path d="M102.7759,8.437h.88867v6.26074h-.88867Z"/>
      </g>
</g>
</svg>
