<?xml version="1.0" encoding="UTF-8"?>
<svg id="Capa_2" data-name="Capa 2" xmlns="http://www.w3.org/2000/svg" viewBox="0 0 700 700">
  <defs>
    <style>
      .cls-1 {
        fill: #fff;
      }

      .cls-2 {
        fill: #4270d9;
      }
    </style>
  </defs>
  <g id="Capa_1-2" data-name="Capa 1">
    <rect class="cls-2" width="700" height="700"/>
    <g>
      <path class="cls-1" d="M102.87,301.28h32.73l1.28,15.09h1.03c7.42-11.25,21.74-18.16,36.57-18.16s26.34,6.65,33.25,19.69h1.02c8.7-12.02,23.53-19.69,40.15-19.69,25.32,0,41.68,17.13,41.68,49.86v76.97h-35.8v-67.25c0-18.92-6.9-26.6-18.67-26.6-12.53,0-21.48,8.95-21.48,27.62v66.23h-35.8v-67.25c0-19.19-6.65-26.6-18.41-26.6-13.04,0-21.74,9.21-21.74,27.62v66.23h-35.8v-123.77Z"/>
      <path class="cls-1" d="M308.71,363.17c0-38.36,26.85-64.95,64.7-64.95s64.69,26.6,64.69,64.95-26.85,64.95-64.69,64.95-64.7-26.6-64.7-64.95ZM373.4,396.16c16.62,0,28.38-12.53,28.38-32.99s-11.76-32.73-28.38-32.73-28.39,12.27-28.39,32.73,11.77,32.99,28.39,32.99Z"/>
      <path class="cls-1" d="M463.91,379.28v-46.54h-19.18v-31.46h19.18v-29.4h35.8v29.4h30.94v31.46h-30.94v43.73c0,15.09,5.37,19.94,20.72,19.94,3.58,0,7.67-.25,10.99-.77v30.17c-5.11,1.28-11.51,2.3-19.69,2.3-32.22,0-47.82-14.58-47.82-48.84Z"/>
      <path class="cls-1" d="M573.35,299.23c13.81,0,23.78,9.98,23.78,24.04s-9.97,24.04-23.78,24.04-24.04-9.97-24.04-24.04,9.97-24.04,24.04-24.04ZM549.31,403.57c0-14.07,9.97-24.04,24.04-24.04s23.78,9.97,23.78,24.04-9.97,24.04-23.78,24.04-24.04-9.97-24.04-24.04Z"/>
    </g>
  </g>
</svg>