<?xml version="1.0" encoding="UTF-8"?>
<svg id="Capa_2" data-name="Capa 2" xmlns="http://www.w3.org/2000/svg" viewBox="0 0 60.83 17.25">
  <defs>
    <style>
      .cls-1 {
        fill: #131313;
        fill-rule: evenodd;
      }
    </style>
  </defs>
  <g id="Capa_1-2" data-name="Capa 1">
    <path class="cls-1" d="M60.39,14.35c-.13-.21-.29-.32-.54-.32-.27,0-.57.18-.57.48,0,.27.26.41.48.49l.24.1c.48.19.84.46.84,1.02,0,.62-.48,1.06-1.08,1.06-.55,0-.98-.41-1.05-.95l.43-.09c0,.37.29.64.66.64s.63-.31.63-.66-.29-.52-.59-.65l-.23-.1c-.39-.17-.74-.39-.74-.86,0-.55.49-.88,1-.88.38,0,.69.19.88.51l-.34.21ZM57.2,15.41c0-.75-.56-1.37-1.36-1.37s-1.36.63-1.36,1.37.62,1.38,1.36,1.38,1.36-.6,1.36-1.38M57.62,15.41c0,1.01-.8,1.77-1.78,1.77s-1.78-.76-1.78-1.77.81-1.77,1.78-1.77,1.78.8,1.78,1.77M52.55,14.35c-.13-.21-.29-.32-.55-.32-.27,0-.57.18-.57.48,0,.27.26.41.47.49l.24.1c.48.19.84.46.84,1.02,0,.62-.48,1.06-1.09,1.06-.55,0-.98-.41-1.05-.95l.43-.09c0,.37.29.64.66.64s.63-.31.63-.66-.29-.52-.59-.65l-.23-.1c-.39-.17-.74-.39-.74-.86,0-.55.48-.88,1-.88.38,0,.69.19.88.51l-.34.21ZM49.28,14.35c-.12-.21-.29-.32-.54-.32-.27,0-.57.18-.57.48,0,.27.26.41.47.49l.24.1c.48.19.85.46.85,1.02,0,.62-.48,1.06-1.09,1.06-.55,0-.98-.41-1.05-.95l.43-.09c0,.37.29.64.66.64s.63-.31.63-.66-.29-.52-.59-.65l-.23-.1c-.39-.17-.74-.39-.74-.86,0-.55.49-.88,1-.88.38,0,.69.19.88.51l-.34.21ZM44.57,13.71h1.83v.39h-1.4v.95h1.36v.39h-1.36v1.29h1.4v.39h-1.83v-3.4ZM41.71,15.32h.14c.43,0,.9-.08.9-.62s-.5-.61-.92-.61h-.11v1.23ZM43.4,17.11h-.51l-1-1.44h-.18v1.44h-.42v-3.4h.51c.3,0,.63,0,.9.16.29.17.45.49.45.81,0,.49-.33.9-.82.95l1.07,1.48ZM40.02,15.39v.14c0,.93-.66,1.65-1.61,1.65s-1.72-.82-1.72-1.76.78-1.78,1.76-1.78c.53,0,1.05.24,1.39.66l-.3.28c-.24-.33-.65-.55-1.07-.55-.76,0-1.36.62-1.36,1.38,0,.71.58,1.39,1.32,1.39.53,0,1.1-.46,1.12-1.01h-.88v-.39h1.35ZM32.49,13.54l2.55,2.67v-2.51h.43v3.54l-2.56-2.67v2.53h-.42v-3.56ZM31.06,17.11h-.42v-3.4h.42v3.4ZM29.08,13.71l-.08,1.48h-.28l-.08-1.48h.44ZM25.1,16.72h.15c.87,0,1.61-.33,1.61-1.31s-.75-1.31-1.61-1.31h-.15v2.63ZM24.68,13.71h.71c1.04,0,1.91.55,1.91,1.68s-.85,1.72-1.92,1.72h-.69v-3.4ZM17.99,12.82l-.74.67-.2-.12.56-.75.38.2ZM18.74,15.41c0-.75-.56-1.37-1.36-1.37s-1.36.63-1.36,1.37.62,1.38,1.36,1.38,1.36-.6,1.36-1.38M19.16,15.41c0,1.01-.8,1.77-1.78,1.77s-1.78-.76-1.78-1.77.8-1.77,1.78-1.77,1.78.8,1.78,1.77M14.36,17.11h-.42v-3.4h.42v3.4ZM11.96,17.11h-.42v-3.01h-.81v-.39h2.04v.39h-.81v3.01ZM9.3,14.35c-.13-.21-.29-.32-.55-.32-.27,0-.57.18-.57.48,0,.27.26.41.47.49l.24.1c.48.19.84.46.84,1.02,0,.62-.48,1.06-1.09,1.06-.55,0-.98-.41-1.05-.95l.43-.09c0,.37.29.64.66.64s.63-.31.63-.66-.29-.52-.59-.65l-.23-.1c-.39-.17-.74-.39-.74-.86,0-.55.49-.88,1-.88.38,0,.69.19.87.51l-.34.21ZM4.59,13.71h1.83v.39h-1.4v.95h1.36v.39h-1.36v1.29h1.4v.39h-1.83v-3.4ZM3.33,15.39v.14c0,.93-.66,1.65-1.61,1.65s-1.72-.82-1.72-1.76.79-1.78,1.76-1.78c.53,0,1.05.24,1.39.66l-.3.28c-.24-.33-.65-.55-1.07-.55-.76,0-1.36.62-1.36,1.38,0,.71.59,1.39,1.32,1.39.53,0,1.1-.46,1.12-1.01h-.88v-.39h1.35ZM29.87,2.16v1.46h2.56v1.92h-2.56v1.51h2.7v1.92h-4.97V.23h4.97v1.92h-2.7ZM24.1,2.48c-.42-.35-.95-.58-1.51-.58-.42,0-.98.24-.98.73s.62.71,1.01.83l.58.17c1.22.36,2.16.97,2.16,2.39,0,.87-.21,1.76-.9,2.35-.69.58-1.6.82-2.48.82-1.1,0-2.18-.37-3.07-1l.97-1.83c.57.5,1.24.9,2.02.9.53,0,1.1-.27,1.1-.88s-.89-.86-1.38-1c-1.43-.41-2.36-.78-2.36-2.47s1.26-2.93,3.01-2.93c.88,0,1.96.28,2.74.72l-.9,1.76ZM12.9,2.93l-.96,2.78h1.89l-.93-2.78ZM11.32,7.45l-.6,1.52h-2.41L11.66.23h2.48l3.29,8.74h-2.42l-.57-1.52h-3.13ZM2.36,7.23h.29c.67,0,1.81.04,1.81-.93,0-1.05-1.12-.95-1.87-.95h-.23v1.88ZM2.36,3.66h.25c.6,0,1.23-.1,1.23-.85,0-.8-.7-.85-1.32-.85h-.16v1.69ZM.09,8.97V.23h3.25c1.55,0,2.6.6,2.6,2.27,0,.79-.26,1.43-.96,1.78,1.25.19,1.79,1.03,1.79,2.25,0,1.83-1.56,2.43-3.16,2.43H.09Z"/>
  </g>
</svg>